<svg width="1440" height="1024" viewBox="0 0 1440 1024" fill="none" xmlns="http://www.w3.org/2000/svg">
<g clip-path="url(#clip0)">
<rect width="1440" height="1024" fill="white"/>
<path d="M-0.917465 0H1440V904.5L1154 733.181H281.5L-0.917465 858V444.046V0Z" fill="#433737"/>
<path d="M1081.5 375C1244 244 888 625.5 1062.5 542.5C1202.1 476.1 1218.67 373.5 1209.5 330.5L1292 397.5C1266.67 343.5 1212.2 236.9 1197 242.5C1178 249.5 1060.5 297.5 1097 347.5C1133.5 397.5 1211.5 445.5 1244 494C1276.5 542.5 1316 549 1292 575C1272.8 595.8 1111.67 555 1033.5 532C1020.65 497.104 1001.2 441.584 988.073 397.5M988.073 397.5C977.879 363.261 971.503 335.921 975 330.5C977.401 326.778 977.525 313.888 977.642 297.5M988.073 397.5C984.895 387 1062.5 308 1156 194C1249.5 80 1233.5 254.5 1292 297.5C1350.5 340.5 1335 434 1375 518.5C1415 603 1335 542.5 1276.5 542.5C1256.47 542.5 1225.07 527.963 1191.95 508M1156 575C1188.8 615 1197 679 1197 706C1225.17 726.833 1283.6 757.8 1292 715C1302.5 661.5 1416.5 653 1313 627C1209.5 601 1131.5 575 1097 575C1068.99 575 1054.12 586.863 1033.5 586.512M1191.95 508C1128.34 469.66 1058.39 411.31 1050.5 397.5C1038.5 376.5 1097 398.007 1176.5 375C1256 351.993 1145.5 292.5 1050.5 216.5C978.312 158.75 978.011 245.64 977.642 297.5M1191.95 508C1250.39 535.5 1231.5 508 1313 456C1394.5 404 1413 384 1421.5 358C1423.62 351.504 1423.19 341.888 1420.99 330.5M1062.5 166.5L1119.5 118L1081.5 194L1147 182L906 465L956 575L975 446L1033.5 586.512M1033.5 586.512C1028.72 586.431 1023.63 585.694 1018 584C988.073 575 993.5 433.5 966 297.5C938.5 161.5 1004 70 1050.5 89C1097 108 1171 113 1231.5 139C1292 165 1352.5 177 1375 216.5C1391.88 246.132 1414.39 296.304 1420.99 330.5M923 242.5L906 411.5L977.642 297.5M940.5 216.5L1313 254.5L1420.99 330.5M1156 358L1350.5 616.5L1387 494" stroke="#59D2E2"/>
</g>
<defs>
<clipPath id="clip0">
<rect width="1440" height="1024" fill="white"/>
</clipPath>
</defs>
</svg>
