<?xml version="1.0" encoding="utf-8"?><svg xmlns="http://www.w3.org/2000/svg" xmlns:xlink="http://www.w3.org/1999/xlink" width="94" height="94" preserveAspectRatio="xMidYMid" viewBox="0 0 94 94" style="display:block;background-repeat-y:initial;background-repeat-x:initial;animation-play-state:paused" ><g transform="scale(0.37)" style="transform:matrix(0.37, 0, 0, 0.37, 0, 0);animation-play-state:paused" ><g data-idx="0" data-dup="r" dx="-128" dy="-128" style="transform-origin:0px 80.5px;transform:matrix(1, 0, 0, 1, 0, 0);animation-timing-function:linear;animation-play-state:paused;animation-name:beat-c0e97579-98da-49ee-8e68-6673af4a8860;animation-iteration-count:infinite;animation-fill-mode:forwards;animation-duration:1s" ><g transform="translate(-128,-128)" style="transform:matrix(1, 0, 0, 1, -128, -128);animation-play-state:paused" ><polygon fill="#333435" points="192,224 128,224 128,160 64,160 64,224 -1,224 -1,256 -1,257 257,257 257,256 257,160 192,160 " data-fill="c1" style="fill:rgb(51, 52, 53);animation-play-state:paused" ></polygon></g></g>
<g data-idx="0" data-dup="r" dx="128" dy="-128" style="transform-origin:256px 80.5px;transform:matrix(1, 0, 0, 1, 0, 0);animation-timing-function:linear;animation-play-state:paused;animation-name:beat-c0e97579-98da-49ee-8e68-6673af4a8860;animation-iteration-count:infinite;animation-fill-mode:forwards;animation-duration:1s" ><g transform="translate(128,-128)" style="transform:matrix(1, 0, 0, 1, 128, -128);animation-play-state:paused" ><polygon fill="#333435" points="192,224 128,224 128,160 64,160 64,224 -1,224 -1,256 -1,257 257,257 257,256 257,160 192,160 " data-fill="c1" style="fill:rgb(51, 52, 53);animation-play-state:paused" ></polygon></g></g>
<g data-idx="1" data-dup="rb" dx="-128" dy="-128" style="transform-origin:0px -80.5px;transform:matrix(1, 0, 0, 1, 0, 0);animation-timing-function:linear;animation-play-state:paused;animation-name:beat-c0e97579-98da-49ee-8e68-6673af4a8860;animation-iteration-count:infinite;animation-fill-mode:forwards;animation-duration:1s" ><g transform="translate(-128,-128)" style="transform:matrix(1, 0, 0, 1, -128, -128);animation-play-state:paused" ><polygon fill="#333435" points="-1,0 -1,32 64,32 64,96 128,96 128,32 192,32 192,96 257,96 257,0 257,-1 -1,-1 " data-fill="c1" style="fill:rgb(51, 52, 53);animation-play-state:paused" ></polygon></g></g>
<g data-idx="1" data-dup="rb" dx="128" dy="-128" style="transform-origin:256px -80.5px;transform:matrix(1, 0, 0, 1, 0, 0);animation-timing-function:linear;animation-play-state:paused;animation-name:beat-c0e97579-98da-49ee-8e68-6673af4a8860;animation-iteration-count:infinite;animation-fill-mode:forwards;animation-duration:1s" ><g transform="translate(128,-128)" style="transform:matrix(1, 0, 0, 1, 128, -128);animation-play-state:paused" ><polygon fill="#333435" points="-1,0 -1,32 64,32 64,96 128,96 128,32 192,32 192,96 257,96 257,0 257,-1 -1,-1 " data-fill="c1" style="fill:rgb(51, 52, 53);animation-play-state:paused" ></polygon></g></g>
<g data-idx="0" data-dup="r" dx="-128" dy="128" style="transform-origin:0px 336.5px;transform:matrix(1, 0, 0, 1, 0, 0);animation-timing-function:linear;animation-play-state:paused;animation-name:beat-c0e97579-98da-49ee-8e68-6673af4a8860;animation-iteration-count:infinite;animation-fill-mode:forwards;animation-duration:1s" ><g transform="translate(-128,128)" style="transform:matrix(1, 0, 0, 1, -128, 128);animation-play-state:paused" ><polygon fill="#333435" points="192,224 128,224 128,160 64,160 64,224 -1,224 -1,256 -1,257 257,257 257,256 257,160 192,160 " data-fill="c1" style="fill:rgb(51, 52, 53);animation-play-state:paused" ></polygon></g></g>
<g data-idx="0" data-dup="r" dx="128" dy="128" style="transform-origin:256px 336.5px;transform:matrix(1, 0, 0, 1, 0, 0);animation-timing-function:linear;animation-play-state:paused;animation-name:beat-c0e97579-98da-49ee-8e68-6673af4a8860;animation-iteration-count:infinite;animation-fill-mode:forwards;animation-duration:1s" ><g transform="translate(128,128)" style="transform:matrix(1, 0, 0, 1, 128, 128);animation-play-state:paused" ><polygon fill="#333435" points="192,224 128,224 128,160 64,160 64,224 -1,224 -1,256 -1,257 257,257 257,256 257,160 192,160 " data-fill="c1" style="fill:rgb(51, 52, 53);animation-play-state:paused" ></polygon></g></g>
<g data-idx="1" data-dup="rb" dx="-128" dy="128" style="transform-origin:0px 175.5px;transform:matrix(1, 0, 0, 1, 0, 0);animation-timing-function:linear;animation-play-state:paused;animation-name:beat-c0e97579-98da-49ee-8e68-6673af4a8860;animation-iteration-count:infinite;animation-fill-mode:forwards;animation-duration:1s" ><g transform="translate(-128,128)" style="transform:matrix(1, 0, 0, 1, -128, 128);animation-play-state:paused" ><polygon fill="#333435" points="-1,0 -1,32 64,32 64,96 128,96 128,32 192,32 192,96 257,96 257,0 257,-1 -1,-1 " data-fill="c1" style="fill:rgb(51, 52, 53);animation-play-state:paused" ></polygon></g></g>
<g data-idx="1" data-dup="rb" dx="128" dy="128" style="transform-origin:256px 175.5px;transform:matrix(1, 0, 0, 1, 0, 0);animation-timing-function:linear;animation-play-state:paused;animation-name:beat-c0e97579-98da-49ee-8e68-6673af4a8860;animation-iteration-count:infinite;animation-fill-mode:forwards;animation-duration:1s" ><g transform="translate(128,128)" style="transform:matrix(1, 0, 0, 1, 128, 128);animation-play-state:paused" ><polygon fill="#333435" points="-1,0 -1,32 64,32 64,96 128,96 128,32 192,32 192,96 257,96 257,0 257,-1 -1,-1 " data-fill="c1" style="fill:rgb(51, 52, 53);animation-play-state:paused" ></polygon></g></g></g></svg>